<svg xmlns="http://www.w3.org/2000/svg" version="1.1" xmlns:xlink="http://www.w3.org/1999/xlink" xmlns:svgjs="http://svgjs.dev/svgjs" width="1500" height="1500" viewBox="0 0 1500 1500"><rect width="1500" height="1500" fill="#ffffff"></rect><g transform="matrix(0.6666666666666666,0,0,0.6666666666666666,249.39393939393938,678.3245051613532)"><svg viewBox="0 0 396 57" data-background-color="#ffffff" preserveAspectRatio="xMidYMid meet" height="215" width="1500" xmlns="http://www.w3.org/2000/svg" xmlns:xlink="http://www.w3.org/1999/xlink"><g id="tight-bounds" transform="matrix(1,0,0,1,0.2400000000000091,0.0035107381595764764)"><svg viewBox="0 0 395.52 56.99297852368087" height="56.99297852368087" width="395.52"><g><svg viewBox="0 0 508.79593857252553 73.315625" height="56.99297852368087" width="395.52"><g><svg viewBox="0 0 508.79593857252553 73.315625" height="73.315625" width="508.79593857252553"><g id="textblocktransform"><svg viewBox="0 0 508.79593857252553 73.315625" height="73.315625" width="508.79593857252553" id="textblock"><g><svg viewBox="0 0 508.79593857252553 73.315625" height="73.315625" width="508.79593857252553"><g><svg><g></g><g></g></svg></g><g><svg><g><svg></svg></g><g></g></svg></g><g id="text-0"><svg viewBox="0 0 508.79593857252553 73.315625" height="73.315625" width="508.79593857252553"><g transform="matrix(1,0,0,1,0,14.001562499999999)"><svg width="148.6328125" viewBox="0.42 -35.3 148.61 35.79" height="35.791015625" data-palette-color="#d7dbde"><path d="M6.93 0L0.42-24.95 5.66-24.95 10.25-5.69 10.82-2.56 11.3-5.66 15.55-24.95 22.17-24.95 26.64-5.69 27.22-2.56 27.76-5.69 32.1-24.95 37.18-24.95 30.88 0 23.44 0 19.43-17.82 18.77-21.44 18.16-17.82 14.53 0 6.93 0ZM43.87-29.17L43.87-29.17Q43.19-29.17 42.59-29.42 41.99-29.66 41.54-30.08 41.09-30.49 40.82-31.04 40.55-31.59 40.55-32.23L40.55-32.23Q40.55-32.89 40.82-33.45 41.09-34.01 41.54-34.42 41.99-34.84 42.59-35.07 43.19-35.3 43.87-35.3L43.87-35.3Q44.55-35.3 45.16-35.07 45.77-34.84 46.23-34.42 46.68-34.01 46.95-33.45 47.21-32.89 47.21-32.23L47.21-32.23Q47.21-31.59 46.95-31.04 46.68-30.49 46.23-30.08 45.77-29.66 45.16-29.42 44.55-29.17 43.87-29.17ZM41.06-4.2L41.06-24.95 46.14-24.95 46.14-4.1 47.58-3.08 47.58 0 46.19 0 46.14-0.05 46.14 0Q43.72 0 42.39-0.98 41.06-1.95 41.06-4.2L41.06-4.2ZM53.36-4.2L53.36-35.13 58.42-35.13 58.42-4.1 59.86-3.08 59.86 0 58.47 0 58.42-0.05 58.42 0Q56 0 54.68-0.98 53.36-1.95 53.36-4.2L53.36-4.2ZM65.15-4.2L65.15-35.13 70.21-35.13 70.21-4.1 71.65-3.08 71.65 0 70.26 0 70.21-0.05 70.21 0Q67.79 0 66.47-0.98 65.15-1.95 65.15-4.2L65.15-4.2ZM80.17-29.17L80.17-29.17Q79.48-29.17 78.88-29.42 78.29-29.66 77.83-30.08 77.38-30.49 77.11-31.04 76.85-31.59 76.85-32.23L76.85-32.23Q76.85-32.89 77.11-33.45 77.38-34.01 77.83-34.42 78.29-34.84 78.88-35.07 79.48-35.3 80.17-35.3L80.17-35.3Q80.85-35.3 81.46-35.07 82.07-34.84 82.52-34.42 82.97-34.01 83.24-33.45 83.51-32.89 83.51-32.23L83.51-32.23Q83.51-31.59 83.24-31.04 82.97-30.49 82.52-30.08 82.07-29.66 81.46-29.42 80.85-29.17 80.17-29.17ZM77.36-4.2L77.36-24.95 82.44-24.95 82.44-4.1 83.88-3.08 83.88 0 82.49 0 82.44-0.05 82.44 0Q80.02 0 78.69-0.98 77.36-1.95 77.36-4.2L77.36-4.2ZM88.2-7.13L88.2-7.13Q88.2-9.16 88.78-10.57 89.37-11.99 90.5-12.89 91.64-13.79 93.26-14.25 94.88-14.7 96.98-14.82L96.98-14.82 102.43-15.11 102.43-17.07Q102.43-18.38 102.2-19.24 101.97-20.09 101.43-20.61 100.89-21.12 100-21.33 99.11-21.53 97.79-21.53L97.79-21.53Q96.47-21.53 95.29-21.24 94.1-20.95 93.22-20.61L93.22-20.61Q92.18-20.19 91.3-19.68L91.3-19.68Q90.76-20.43 90.44-21.13 90.12-21.83 89.95-22.39L89.95-22.39Q89.73-23.02 89.66-23.61L89.66-23.61Q90.83-24.19 92.18-24.63L92.18-24.63Q93.35-25.02 94.87-25.34 96.4-25.66 98.08-25.66L98.08-25.66Q100.87-25.66 102.7-25.17 104.53-24.68 105.61-23.69 106.7-22.71 107.13-21.2 107.56-19.7 107.56-17.65L107.56-17.65 107.56-4.03 109.61-1.54 109.61 0 105.09 0 103.21-2.17 102.33-2.17Q102.21-2.05 101.68-1.62 101.16-1.2 100.34-0.72 99.52-0.24 98.49 0.12 97.45 0.49 96.28 0.49L96.28 0.49Q94.45 0.49 92.96-0.06 91.47-0.61 90.4-1.62 89.34-2.64 88.77-4.04 88.2-5.44 88.2-7.13ZM93.52-7.57L93.52-7.57Q93.52-6.45 93.84-5.7 94.15-4.96 94.73-4.52 95.3-4.08 96.12-3.91 96.94-3.74 97.94-3.74L97.94-3.74Q98.86-3.74 99.68-3.97 100.5-4.2 101.11-4.49L101.11-4.49Q101.82-4.81 102.43-5.25L102.43-5.25 102.43-11.82 97.52-11.5Q96.37-11.43 95.61-11.11 94.84-10.79 94.37-10.28 93.91-9.77 93.71-9.07 93.52-8.37 93.52-7.57ZM114.56-20.48L112.63-22.46 112.63-25.22 117.12-25.22 119.22-23.1 119.88-23.49Q120-23.61 120.6-23.96 121.2-24.32 122.1-24.69 123.01-25.07 124.14-25.37 125.28-25.66 126.45-25.66L126.45-25.66Q128.62-25.66 130.03-25.02 131.43-24.39 132.48-23.19L132.48-23.19Q132.87-23.51 133.63-23.94 134.38-24.37 135.37-24.76 136.36-25.15 137.51-25.4 138.66-25.66 139.83-25.66L139.83-25.66Q141.88-25.66 143.58-25.05 145.27-24.44 146.48-23.3 147.69-22.17 148.36-20.58 149.03-18.99 149.03-17.02L149.03-17.02 149.03 0 143.78 0 143.78-16.5Q143.78-19.14 142.37-20.41 140.95-21.68 138.51-21.68L138.51-21.68Q137.07-21.68 135.81-21.45 134.56-21.22 133.94-20.95L133.94-20.95Q134.29-20.17 134.48-19.29 134.68-18.41 134.68-17.5L134.68-17.5 134.68 0 129.43 0 129.43-16.99Q129.43-19.36 128.45-20.52 127.48-21.68 125.11-21.68L125.11-21.68Q123.98-21.68 123.01-21.47 122.03-21.26 121.32-21L121.32-21Q120.49-20.7 119.78-20.34L119.78-20.34 119.78 0 114.56 0 114.56-20.48Z" opacity="1" transform="matrix(1,0,0,1,0,0)" fill="#d7dbde" class="undefined-tk-0"></path></svg></g><g><svg xmlns="http://www.w3.org/2000/svg" data-name="Layer 1" viewBox="1.7599675387285525 8.999999999914726 96.48006492254288 82.00000000017054" x="165.9421875" y="0" height="73.315625" width="86.26214951002557" class="icon-dxe-0" data-fill-palette-color="accent" id="dxe-0"><path d="M92.07 9H7.93A6.17 6.17 0 0 0 1.76 15.17V84.81A6.17 6.17 0 0 0 7.93 91H92.07A6.17 6.17 0 0 0 98.24 84.83V15.19A6.17 6.17 0 0 0 92.07 9M42.07 17.07A4.26 4.26 0 0 1 42.07 25.6 4.26 4.26 0 0 1 42.07 17.07M29.68 17.07A4.26 4.26 0 0 1 29.68 25.6 4.26 4.26 0 0 1 29.68 17.07M17.29 17.07A4.26 4.26 0 0 1 17.29 25.6 4.26 4.26 0 0 1 17.29 17.07M85.9 48.31V78.64H14.1V33.7H85.9ZM33.58 59.51L36.41 60.01A14.7 14.7 0 0 0 37.87 63.54L36.22 65.89A2.18 2.18 0 0 0 36.46 68.68L38.16 70.38A2.18 2.18 0 0 0 40.95 70.62L43.3 69A14.7 14.7 0 0 0 46.83 70.46L47.33 73.29A2.18 2.18 0 0 0 49.47 75.09H51.87A2.18 2.18 0 0 0 54 73.26L54.5 70.43A14.6 14.6 0 0 0 58 69L60.35 70.65A2.18 2.18 0 0 0 63.14 70.41L64.84 68.71A2.18 2.18 0 0 0 65.08 65.92L63.43 63.56A14.7 14.7 0 0 0 64.94 60L67.77 59.5A2.18 2.18 0 0 0 69.57 57.36V55A2.18 2.18 0 0 0 67.77 52.86L64.94 52.36A14.7 14.7 0 0 0 63.48 48.83L65.13 46.48A2.18 2.18 0 0 0 64.89 43.69L63.18 42A2.18 2.18 0 0 0 60.39 41.76L58 43.37A14.7 14.7 0 0 0 54.47 41.91L54 39.07A2.18 2.18 0 0 0 51.86 37.27H49.46A2.18 2.18 0 0 0 47.32 39.07L46.82 41.9A14.7 14.7 0 0 0 43.29 43.36L40.94 41.71A2.18 2.18 0 0 0 38.15 41.95L36.45 43.65A2.18 2.18 0 0 0 36.21 46.44L37.86 48.79A14.7 14.7 0 0 0 36.4 52.32L33.57 52.82A2.18 2.18 0 0 0 31.78 55V57.4A2.18 2.18 0 0 0 33.58 59.51M50.68 49.64A6.53 6.53 0 1 1 44.15 56.17 6.53 6.53 0 0 1 50.67 49.64Z" fill="#f84e45" data-fill-palette-color="accent"></path></svg></g><g transform="matrix(1,0,0,1,269.51371201002553,14.001562499999999)"><svg width="239.28222656250003" viewBox="2.1 -35.3 239.26000000000002 45.309999999999995" height="45.3125" data-palette-color="#d7dbde"><path d="M2.1-1.12L2.1-1.12Q2.1-1.68 2.2-2.34L2.2-2.34Q2.27-2.91 2.43-3.63 2.59-4.35 2.91-5.13L2.91-5.13Q3.98-4.71 5.15-4.39L5.15-4.39Q6.15-4.13 7.32-3.89 8.5-3.66 9.64-3.66L9.64-3.66Q10.67-3.66 11.55-3.74 12.43-3.81 13.07-4.14 13.72-4.47 14.09-5.14 14.45-5.81 14.45-7.01L14.45-7.01Q14.45-8.45 13.56-9.28 12.67-10.11 10.47-10.52L10.47-10.52Q8.2-10.96 6.65-11.69 5.1-12.43 4.14-13.39 3.17-14.36 2.75-15.55 2.32-16.75 2.32-18.12L2.32-18.12Q2.32-20.17 2.98-21.61 3.64-23.05 4.9-23.94 6.15-24.83 8.02-25.23 9.89-25.63 12.3-25.63L12.3-25.63Q13.99-25.63 15.3-25.4 16.6-25.17 17.48-24.9L17.48-24.9Q18.51-24.58 19.26-24.17L19.26-24.17Q19.19-23.63 18.99-23L18.99-23Q18.82-22.46 18.54-21.78 18.26-21.09 17.8-20.39L17.8-20.39Q17.14-20.78 16.28-21.07L16.28-21.07Q15.55-21.34 14.53-21.55 13.5-21.75 12.18-21.75L12.18-21.75Q11.16-21.75 10.29-21.66 9.42-21.56 8.8-21.22 8.18-20.87 7.84-20.18 7.5-19.48 7.5-18.29L7.5-18.29Q7.5-17.7 7.65-17.22 7.81-16.75 8.29-16.36 8.76-15.97 9.63-15.64 10.5-15.31 11.94-14.99L11.94-14.99Q14.18-14.5 15.69-13.87 17.19-13.23 18.08-12.33 18.97-11.43 19.35-10.22 19.73-9.01 19.73-7.35L19.73-7.35Q19.73-5.57 19.17-4.13 18.6-2.69 17.41-1.66 16.21-0.63 14.33-0.07 12.45 0.49 9.79 0.49L9.79 0.49Q8.08 0.49 6.68 0.24 5.27 0 4.25-0.32L4.25-0.32Q3.05-0.66 2.1-1.12ZM23.8-7.13L23.8-7.13Q23.8-9.16 24.39-10.57 24.97-11.99 26.11-12.89 27.24-13.79 28.87-14.25 30.49-14.7 32.59-14.82L32.59-14.82 38.03-15.11 38.03-17.07Q38.03-18.38 37.8-19.24 37.57-20.09 37.03-20.61 36.5-21.12 35.61-21.33 34.71-21.53 33.4-21.53L33.4-21.53Q32.08-21.53 30.89-21.24 29.71-20.95 28.83-20.61L28.83-20.61Q27.78-20.19 26.9-19.68L26.9-19.68Q26.36-20.43 26.05-21.13 25.73-21.83 25.56-22.39L25.56-22.39Q25.34-23.02 25.27-23.61L25.27-23.61Q26.44-24.19 27.78-24.63L27.78-24.63Q28.95-25.02 30.48-25.34 32-25.66 33.69-25.66L33.69-25.66Q36.47-25.66 38.3-25.17 40.13-24.68 41.22-23.69 42.31-22.71 42.73-21.2 43.16-19.7 43.16-17.65L43.16-17.65 43.16-4.03 45.21-1.54 45.21 0 40.7 0 38.82-2.17 37.94-2.17Q37.81-2.05 37.29-1.62 36.77-1.2 35.95-0.72 35.13-0.24 34.09 0.12 33.05 0.49 31.88 0.49L31.88 0.49Q30.05 0.49 28.56-0.06 27.07-0.61 26.01-1.62 24.95-2.64 24.37-4.04 23.8-5.44 23.8-7.13ZM29.12-7.57L29.12-7.57Q29.12-6.45 29.44-5.7 29.76-4.96 30.33-4.52 30.91-4.08 31.72-3.91 32.54-3.74 33.54-3.74L33.54-3.74Q34.47-3.74 35.29-3.97 36.11-4.2 36.72-4.49L36.72-4.49Q37.42-4.81 38.03-5.25L38.03-5.25 38.03-11.82 33.13-11.5Q31.98-11.43 31.21-11.11 30.44-10.79 29.98-10.28 29.51-9.77 29.32-9.07 29.12-8.37 29.12-7.57ZM50.17-20.48L48.24-22.46 48.24-25.22 52.73-25.22 54.83-23.1 55.49-23.49Q55.61-23.61 56.21-23.96 56.81-24.32 57.71-24.69 58.61-25.07 59.75-25.37 60.88-25.66 62.06-25.66L62.06-25.66Q64.23-25.66 65.63-25.02 67.04-24.39 68.09-23.19L68.09-23.19Q68.48-23.51 69.23-23.94 69.99-24.37 70.98-24.76 71.97-25.15 73.12-25.4 74.26-25.66 75.43-25.66L75.43-25.66Q77.49-25.66 79.18-25.05 80.88-24.44 82.09-23.3 83.3-22.17 83.97-20.58 84.64-18.99 84.64-17.02L84.64-17.02 84.64 0 79.39 0 79.39-16.5Q79.39-19.14 77.97-20.41 76.56-21.68 74.12-21.68L74.12-21.68Q72.68-21.68 71.42-21.45 70.16-21.22 69.55-20.95L69.55-20.95Q69.89-20.17 70.09-19.29 70.28-18.41 70.28-17.5L70.28-17.5 70.28 0 65.03 0 65.03-16.99Q65.03-19.36 64.06-20.52 63.08-21.68 60.71-21.68L60.71-21.68Q59.59-21.68 58.61-21.47 57.64-21.26 56.93-21L56.93-21Q56.1-20.7 55.39-20.34L55.39-20.34 55.39 0 50.17 0 50.17-20.48ZM95.06 0L88.54-24.95 93.79-24.95 98.38-5.69 98.94-2.56 99.43-5.66 103.68-24.95 110.3-24.95 114.76-5.69 115.35-2.56 115.89-5.69 120.23-24.95 125.31-24.95 119.01 0 111.56 0 107.56-17.82 106.9-21.44 106.29-17.82 102.65 0 95.06 0ZM127.31-7.13L127.31-7.13Q127.31-9.16 127.9-10.57 128.48-11.99 129.62-12.89 130.75-13.79 132.38-14.25 134-14.7 136.1-14.82L136.1-14.82 141.54-15.11 141.54-17.07Q141.54-18.38 141.31-19.24 141.08-20.09 140.54-20.61 140-21.12 139.11-21.33 138.22-21.53 136.9-21.53L136.9-21.53Q135.59-21.53 134.4-21.24 133.22-20.95 132.34-20.61L132.34-20.61Q131.29-20.19 130.41-19.68L130.41-19.68Q129.87-20.43 129.56-21.13 129.24-21.83 129.07-22.39L129.07-22.39Q128.85-23.02 128.77-23.61L128.77-23.61Q129.95-24.19 131.29-24.63L131.29-24.63Q132.46-25.02 133.99-25.34 135.51-25.66 137.2-25.66L137.2-25.66Q139.98-25.66 141.81-25.17 143.64-24.68 144.73-23.69 145.82-22.71 146.24-21.2 146.67-19.7 146.67-17.65L146.67-17.65 146.67-4.03 148.72-1.54 148.72 0 144.2 0 142.32-2.17 141.45-2.17Q141.32-2.05 140.8-1.62 140.27-1.2 139.46-0.72 138.64-0.24 137.6 0.12 136.56 0.49 135.39 0.49L135.39 0.49Q133.56 0.49 132.07-0.06 130.58-0.61 129.52-1.62 128.46-2.64 127.88-4.04 127.31-5.44 127.31-7.13ZM132.63-7.57L132.63-7.57Q132.63-6.45 132.95-5.7 133.27-4.96 133.84-4.52 134.41-4.08 135.23-3.91 136.05-3.74 137.05-3.74L137.05-3.74Q137.98-3.74 138.8-3.97 139.61-4.2 140.22-4.49L140.22-4.49Q140.93-4.81 141.54-5.25L141.54-5.25 141.54-11.82 136.64-11.5Q135.49-11.43 134.72-11.11 133.95-10.79 133.49-10.28 133.02-9.77 132.83-9.07 132.63-8.37 132.63-7.57ZM153.28 0L153.28-35.16 158.26-35.16 158.26-16.58 158.02-13.04 159.31-14.58 167.15-24.95 173.06-24.95 165.12-14.89 163.1-12.96 164.68-11.52 173.5 0 167.57 0 159.17-11.28 158.02-12.74 158.26-8.3 158.26 0 153.28 0ZM175.57-7.13L175.57-7.13Q175.57-9.16 176.16-10.57 176.74-11.99 177.88-12.89 179.01-13.79 180.64-14.25 182.26-14.7 184.36-14.82L184.36-14.82 189.8-15.11 189.8-17.07Q189.8-18.38 189.57-19.24 189.34-20.09 188.8-20.61 188.27-21.12 187.38-21.33 186.48-21.53 185.17-21.53L185.17-21.53Q183.85-21.53 182.66-21.24 181.48-20.95 180.6-20.61L180.6-20.61Q179.55-20.19 178.67-19.68L178.67-19.68Q178.13-20.43 177.82-21.13 177.5-21.83 177.33-22.39L177.33-22.39Q177.11-23.02 177.04-23.61L177.04-23.61Q178.21-24.19 179.55-24.63L179.55-24.63Q180.72-25.02 182.25-25.34 183.77-25.66 185.46-25.66L185.46-25.66Q188.24-25.66 190.07-25.17 191.9-24.68 192.99-23.69 194.08-22.71 194.5-21.2 194.93-19.7 194.93-17.65L194.93-17.65 194.93-4.03 196.98-1.54 196.98 0 192.47 0 190.59-2.17 189.71-2.17Q189.58-2.05 189.06-1.62 188.53-1.2 187.72-0.72 186.9-0.24 185.86 0.12 184.82 0.49 183.65 0.49L183.65 0.49Q181.82 0.49 180.33-0.06 178.84-0.61 177.78-1.62 176.72-2.64 176.14-4.04 175.57-5.44 175.57-7.13ZM180.89-7.57L180.89-7.57Q180.89-6.45 181.21-5.7 181.53-4.96 182.1-4.52 182.68-4.08 183.49-3.91 184.31-3.74 185.31-3.74L185.31-3.74Q186.24-3.74 187.06-3.97 187.88-4.2 188.49-4.49L188.49-4.49Q189.19-4.81 189.8-5.25L189.8-5.25 189.8-11.82 184.9-11.5Q183.75-11.43 182.98-11.11 182.21-10.79 181.75-10.28 181.28-9.77 181.09-9.07 180.89-8.37 180.89-7.57ZM216.07 1.95L216.07-24.9 221.34-24.9 221.34 2.39Q221.34 3.93 220.95 5.14 220.56 6.35 219.69 7.29 218.83 8.23 217.45 8.9 216.07 9.57 214.09 10.01L214.09 10.01Q213.63 9.3 213.37 8.69 213.11 8.08 212.99 7.67L212.99 7.67Q212.85 7.18 212.77 6.79L212.77 6.79Q214.38 6.42 215.23 5.25 216.07 4.08 216.07 1.95L216.07 1.95ZM218.8-29.17L218.8-29.17Q218.12-29.17 217.52-29.42 216.92-29.66 216.47-30.08 216.02-30.49 215.76-31.04 215.51-31.59 215.51-32.23L215.51-32.23Q215.51-32.89 215.76-33.45 216.02-34.01 216.47-34.42 216.92-34.84 217.52-35.07 218.12-35.3 218.8-35.3L218.8-35.3Q219.49-35.3 220.1-35.07 220.71-34.84 221.17-34.42 221.64-34.01 221.9-33.45 222.17-32.89 222.17-32.23L222.17-32.23Q222.17-31.59 221.9-31.04 221.64-30.49 221.17-30.08 220.71-29.66 220.1-29.42 219.49-29.17 218.8-29.17ZM226.88-25.22L231.37-25.22 233.89-22.58Q234.16-23.19 234.58-23.74 235.01-24.29 235.59-24.71 236.16-25.12 236.88-25.37 237.6-25.61 238.45-25.61L238.45-25.61Q239.16-25.61 239.82-25.5 240.48-25.39 241.26-25.12L241.26-25.12Q241.29-25.07 241.32-24.73 241.36-24.39 241.36-23.88L241.36-23.88Q241.36-23.49 241.31-22.96 241.26-22.44 241.15-21.89 241.04-21.34 240.83-20.8 240.63-20.26 240.31-19.87L240.31-19.87 239.85-19.75Q239.36-20 238.76-20.17 238.16-20.34 237.53-20.34L237.53-20.34Q236.55-20.34 235.89-20.2 235.23-20.07 234.82-19.92L234.82-19.92Q234.33-19.75 234.04-19.53L234.04-19.53 234.04 0 228.81 0 228.81-20.48 226.88-22.46 226.88-25.22Z" opacity="1" transform="matrix(1,0,0,1,0,0)" fill="#d7dbde" class="undefined-tk-1"></path></svg></g></svg></g></svg></g></svg></g></svg></g><g></g></svg></g><defs></defs></svg><rect width="395.52" height="56.99297852368087" fill="none" stroke="none" visibility="hidden"></rect></g></svg></g></svg>